HIERARCHY
ROOT Hips
{
  OFFSET 55.3529 56.3333 13.9693
  CHANNELS 6 Xposition Yposition Zposition Zrotation Xrotation Yrotation
  JOINT spine
  {
    OFFSET 0 8.13249 0.467659
    CHANNELS 3 Zrotation Xrotation Yrotation
    JOINT spine1
    {
      OFFSET 0 10.3498 0
      CHANNELS 3 Zrotation Xrotation Yrotation
      JOINT spine2
      {
        OFFSET 0 9.91699 0
        CHANNELS 3 Zrotation Xrotation Yrotation
        JOINT Neck
        {
          OFFSET 0 25.461 1.2139
          CHANNELS 3 Zrotation Xrotation Yrotation
          JOINT Head
          {
            OFFSET 0 7.69245 0
            CHANNELS 3 Zrotation Xrotation Yrotation
            End Site
            {
              OFFSET 0 18.62 -6.14063
            }
          }
        }
        JOINT RightShoulder
        {
          OFFSET -4.17575 10.7096 -0.581445
          CHANNELS 3 Zrotation Xrotation Yrotation
          JOINT RightArm
          {
            OFFSET 0 14.0466 0
            CHANNELS 3 Zrotation Xrotation Yrotation
            JOINT RightArmRoll
            {
              OFFSET 0 7.09099 0
              CHANNELS 3 Zrotation Xrotation Yrotation
              JOINT RightForeArm
              {
                OFFSET 0 20.6535 0
                CHANNELS 3 Zrotation Xrotation Yrotation
                JOINT RightForeArmRoll
                {
                  OFFSET 0 7.95718 0
                  CHANNELS 3 Zrotation Xrotation Yrotation
                  JOINT RightHand
                  {
                    OFFSET 0 15.9683 0
                    CHANNELS 3 Zrotation Xrotation Yrotation
                    End Site
                    {
                      OFFSET 0 0 0
                    }
                  }
                }
              }
            }
          }
        }
        JOINT LeftShoulder
        {
          OFFSET 4.17575 10.7096 -0.581445
          CHANNELS 3 Zrotation Xrotation Yrotation
          JOINT LeftArm
          {
            OFFSET 0 14.0466 0
            CHANNELS 3 Zrotation Xrotation Yrotation
            JOINT LeftArmRoll
            {
              OFFSET 0 7.09099 0
              CHANNELS 3 Zrotation Xrotation Yrotation
              JOINT LeftForeArm
              {
                OFFSET 0 20.6535 0
                CHANNELS 3 Zrotation Xrotation Yrotation
                JOINT LeftForeArmRoll
                {
                  OFFSET 0 7.95718 0
                  CHANNELS 3 Zrotation Xrotation Yrotation
                  JOINT LeftHand
                  {
                    OFFSET 0 15.9683 0
                    CHANNELS 3 Zrotation Xrotation Yrotation
                    End Site
                    {
                      OFFSET 0 0 0
                    }
                  }
                }
              }
            }
          }
        }
      }
    }
  }
  JOINT RightUpLeg
  {
    OFFSET -7.20834 -1.32182 -1.10884
    CHANNELS 3 Zrotation Xrotation Yrotation
    JOINT RightUpLegRoll
    {
      OFFSET 0 18.7238 0
      CHANNELS 3 Zrotation Xrotation Yrotation
      JOINT RightLeg
      {
        OFFSET 0 -23.1866 0
        CHANNELS 3 Zrotation Xrotation Yrotation
        JOINT RightLegRoll
        {
          OFFSET 0 23.2624 0
          CHANNELS 3 Zrotation Xrotation Yrotation
          JOINT RightFoot
          {
            OFFSET 0 19.3621 0
            CHANNELS 3 Zrotation Xrotation Yrotation
            JOINT RightToeBase
            {
              OFFSET 0 16.1857 0
              CHANNELS 3 Zrotation Xrotation Yrotation
              End Site
              {
                OFFSET 0.00686052 7.83863 -0.903522
              }
            }
          }
        }
      }
    }
  }
  JOINT LeftUpLeg
  {
    OFFSET 7.20834 -1.32182 -1.10884
    CHANNELS 3 Zrotation Xrotation Yrotation
    JOINT LeftUpLegRoll
    {
      OFFSET 0 18.7239 0
      CHANNELS 3 Zrotation Xrotation Yrotation
      JOINT LeftLeg
      {
        OFFSET 0 23.1865 0
        CHANNELS 3 Zrotation Xrotation Yrotation
        JOINT LeftLegRoll
        {
          OFFSET 0 23.4775 0
          CHANNELS 3 Zrotation Xrotation Yrotation
          JOINT LeftFoot
          {
            OFFSET 0 19.147 0
            CHANNELS 3 Zrotation Xrotation Yrotation
            JOINT LeftToeBase
            {
              OFFSET 0 16.1857 0
              CHANNELS 3 Zrotation Xrotation Yrotation
              End Site
              {
                OFFSET -0.0307459 7.83863 -0.903522
              }
            }
          }
        }
      }
    }
  }
}
MOTION
Frames: 11
Frame Time: 0.00208333
53.996 67.245 23.6036 0.68 26.0388 -1.2349 1.06261 3.04421 -0.0886606 2.15019 10.0935 -0.364884 2.16184 11.7379 -0.402448 -7.07465 6.69669 -4.50821 3.5063 9.33246 -6.07341 44.5851 -9.54252 -5.78681 128.237 32.3866 -40.9216 9.69126e-007 -2.52764e-006 -7.98789e-006 25.0525 73.727 -22.6681 -6.96718e-006 2.77333e-006 -2.99999 8.0294 -4.95146 0.69767 -57.3639 -5.91219 3.58623 -119.505 33.5073 34.4202 2.06576e-006 1.01025e-006 7.15918e-007 -5.05049 65.6869 3.6196 1.15337e-007 3.42484e-006 3.0082 -8.02914 -4.95144 -0.697657 47.4011 79.7178 134.869 180 7.01613e-015 179.266 168.66 76.3151 -174.035 -2.99257e-007 -3.05125e-006 1.46485 -21.2957 68.6691 20.1566 8.1365 25.2327 -3.48774 -54.8302 78.6234 -126.99 4.5067e-006 -1.99009e-005 -0.777978 -5.14007 -79.0726 -1.34468 3.40533e-006 -6.77322e-007 -1.77965 21.2824 71.5091 -22.9335 -8.13621 25.2327 3.48761 
54.0082 67.1274 23.5479 0.685006 25.9496 -1.24781 1.06262 3.04174 -0.0884465 2.14953 10.089 -0.363579 2.16116 11.7334 -0.401134 -7.05578 6.66676 -4.51553 3.48237 9.38198 -6.07735 44.5811 -9.5598 -5.80091 128.164 32.3354 -40.9999 9.69126e-007 -2.52764e-006 -7.98789e-006 25.1031 73.8964 -22.7765 -6.96718e-006 2.77333e-006 -2.99999 8.0294 -4.95146 0.69767 -57.3338 -5.92256 3.59121 -119.522 33.4604 34.4892 2.06576e-006 1.01025e-006 7.15918e-007 -4.98278 65.7872 3.57648 1.15337e-007 3.42484e-006 3.0082 -8.02914 -4.95144 -0.697657 47.0721 79.6541 135.225 180 7.01613e-015 179.263 168.693 76.4599 -174.051 -2.99257e-007 -3.05125e-006 1.47264 -21.2751 68.6372 20.1267 8.1365 25.2327 -3.48774 -54.4944 78.5688 -127.357 4.5067e-006 -1.99009e-005 -0.78159 -4.99934 -79.231 -1.22819 3.40533e-006 -6.77322e-007 -1.78823 21.2664 71.4911 -22.9131 -8.13621 25.2327 3.48761 
54.0218 67.0138 23.4876 0.689432 25.8598 -1.26109 1.06264 3.03937 -0.0882187 2.14895 10.0846 -0.362283 2.16056 11.729 -0.399831 -7.0369 6.63687 -4.52229 3.45838 9.43074 -6.08068 44.5775 -9.57662 -5.81463 128.092 32.2856 -41.078 9.69126e-007 -2.52764e-006 -7.98789e-006 25.1536 74.0635 -22.8845 -6.96718e-006 2.77333e-006 -2.99999 8.0294 -4.95146 0.69767 -57.3041 -5.93382 3.59678 -119.542 33.4156 34.5549 2.06576e-006 1.01025e-006 7.15918e-007 -4.91865 65.8843 3.53611 1.15337e-007 3.42484e-006 3.0082 -8.02914 -4.95144 -0.697657 46.7494 79.5921 135.575 180 -7.01612e-015 179.26 168.728 76.6026 -174.068 -2.99257e-007 -3.05125e-006 1.48036 -21.2534 68.6045 20.0961 8.1365 25.2327 -3.48774 -54.1699 78.5138 -127.712 4.5067e-006 -1.99009e-005 -0.785143 -4.85506 -79.3875 -1.10807 3.40533e-006 -6.77322e-007 -1.79667 21.2493 71.4722 -22.8917 -8.13621 25.2327 3.48761 
54.0384 66.8958 23.4336 0.69341 25.7694 -1.27463 1.06266 3.03712 -0.0879976 2.14843 10.0805 -0.361052 2.16001 11.725 -0.398595 -7.01798 6.6072 -4.52841 3.43431 9.47842 -6.08332 44.5744 -9.59295 -5.82796 128.021 32.2375 -41.1557 9.69126e-007 -2.52764e-006 -7.98789e-006 25.204 74.2277 -22.9916 -6.96718e-006 2.77333e-006 -2.99999 8.0294 -4.95146 0.69767 -57.2748 -5.94575 3.6028 -119.566 33.3738 34.6164 2.06576e-006 1.01025e-006 7.15918e-007 -4.85938 65.9776 3.49953 1.15337e-007 3.42484e-006 3.0082 -8.02914 -4.95144 -0.697657 46.4351 79.5315 135.916 180 7.01612e-015 179.258 168.765 76.7433 -174.087 -2.99257e-007 -3.05125e-006 1.48803 -21.2309 68.571 20.0648 8.1365 25.2327 -3.48774 -53.8568 78.459 -128.055 4.5067e-006 -1.99009e-005 -0.788644 -4.70716 -79.542 -0.984207 3.40533e-006 -6.77322e-007 -1.80498 21.231 71.4523 -22.8691 -8.13621 25.2327 3.48761 
54.0452 66.7849 23.3713 0.697075 25.678 -1.28832 1.06266 3.03503 -0.0878038 2.14794 10.0768 -0.359943 2.15951 11.7212 -0.397482 -6.99897 6.57791 -4.5338 3.41013 9.52472 -6.08516 44.5723 -9.60876 -5.84087 127.951 32.1913 -41.2328 9.69126e-007 -2.52764e-006 -7.98789e-006 25.2541 74.3885 -23.0974 -6.96718e-006 2.77333e-006 -2.99999 8.0294 -4.95146 0.69767 -57.2459 -5.95817 3.60916 -119.595 33.3356 34.6727 2.06576e-006 1.01025e-006 7.15918e-007 -4.80627 66.0658 3.46781 1.15337e-007 3.42484e-006 3.0082 -8.02914 -4.95144 -0.697657 46.1316 79.4722 136.246 180 7.01612e-015 179.255 168.802 76.8819 -174.108 -2.99257e-007 -3.05125e-006 1.49565 -21.2078 68.5367 20.0327 8.1365 25.2327 -3.48774 -53.5552 78.4045 -128.386 4.5067e-006 -1.99009e-005 -0.792102 -4.55558 -79.6941 -0.856493 3.40533e-006 -6.77322e-007 -1.81312 21.2113 71.4313 -22.8453 -8.13621 25.2327 3.48761 
54.0653 66.6697 23.3186 0.700561 25.5856 -1.30209 1.06262 3.03313 -0.0876577 2.14749 10.0733 -0.359014 2.15903 11.7178 -0.396548 -6.97984 6.54919 -4.53837 3.38582 9.56931 -6.08611 44.5713 -9.62402 -5.85333 127.881 32.1475 -41.3094 9.69126e-007 -2.52764e-006 -7.98789e-006 25.3037 74.5455 -23.2016 -6.96718e-006 2.77333e-006 -2.99999 8.0294 -4.95146 0.69767 -57.2172 -5.97088 3.61573 -119.631 33.3018 34.7228 2.06576e-006 1.01025e-006 7.15918e-007 -4.76065 66.1483 3.44202 1.15337e-007 3.42484e-006 3.0082 -8.02914 -4.95144 -0.697657 45.8411 79.414 136.564 180 7.01611e-015 179.252 168.841 77.0183 -174.129 -2.99257e-007 -3.05125e-006 1.50325 -21.1844 68.5014 19.9999 8.1365 25.2327 -3.48774 -53.2653 78.3509 -128.706 4.5067e-006 -1.99009e-005 -0.795528 -4.40026 -79.8438 -0.724836 3.40533e-006 -6.77322e-007 -1.82108 21.1898 71.4091 -22.8201 -8.13621 25.2327 3.48761 
54.0584 66.5591 23.2563 0.704002 25.4919 -1.31582 1.06252 3.03144 -0.0875799 2.14704 10.0703 -0.35832 2.15857 11.7148 -0.395851 -6.96054 6.52122 -4.54205 3.36137 9.61188 -6.08608 44.5719 -9.63869 -5.86533 127.811 32.1062 -41.3851 9.69126e-007 -2.52764e-006 -7.98789e-006 25.3526 74.6982 -23.3038 -6.96718e-006 2.77333e-006 -2.99999 8.0294 -4.95146 0.69767 -57.1888 -5.98369 3.62239 -119.674 33.2731 34.7658 2.06576e-006 1.01025e-006 7.15918e-007 -4.72383 66.224 3.42324 1.15337e-007 3.42484e-006 3.0082 -8.02914 -4.95144 -0.697657 45.5657 79.3568 136.866 180 7.01611e-015 179.249 168.88 77.1526 -174.151 -2.99257e-007 -3.05125e-006 1.51082 -21.1607 68.4652 19.9663 8.1365 25.2327 -3.48774 -52.987 78.2984 -129.013 4.5067e-006 -1.99009e-005 -0.798929 -4.24116 -79.9908 -0.589151 3.40533e-006 -6.77322e-007 -1.82884 21.1664 71.3855 -22.7934 -8.13621 25.2327 3.48761 
54.0767 66.444 23.2025 0.707536 25.3969 -1.32942 1.06235 3.03 -0.0875909 2.14658 10.0678 -0.357919 2.15811 11.7122 -0.395447 -6.94104 6.49417 -4.54474 3.33673 9.65212 -6.08497 44.5742 -9.65275 -5.87685 127.742 32.0678 -41.4599 9.69126e-007 -2.52764e-006 -7.98789e-006 25.4006 74.8462 -23.4034 -6.96718e-006 2.77333e-006 -2.99999 8.0294 -4.95146 0.69767 -57.1607 -5.9964 3.62902 -119.725 33.2503 34.8007 2.06576e-006 1.01025e-006 7.15918e-007 -4.69716 66.2921 3.41258 1.15337e-007 3.42484e-006 3.0082 -8.02914 -4.95144 -0.697657 45.3076 79.3003 137.152 180 7.0161e-015 179.246 168.919 77.2847 -174.173 -2.99257e-007 -3.05125e-006 1.51837 -21.1371 68.428 19.9319 8.1365 25.2327 -3.48774 -52.7204 78.2475 -129.309 4.5067e-006 -1.99009e-005 -0.802315 -4.07823 -80.1349 -0.449366 3.40533e-006 -6.77322e-007 -1.83639 21.1408 71.3605 -22.7649 -8.13621 25.2327 3.48761 
54.0819 66.335 23.1441 0.711296 25.3002 -1.3428 1.06208 3.02883 -0.0877111 2.1461 10.0659 -0.357868 2.15763 11.7103 -0.395392 -6.9213 6.46822 -4.54637 3.3119 9.68972 -6.08269 44.5785 -9.66616 -5.88786 127.674 32.0326 -41.5336 9.69126e-007 -2.52764e-006 -7.98789e-006 25.4474 74.9889 -23.5 -6.96718e-006 2.77333e-006 -2.99999 8.0294 -4.95146 0.69767 -57.1327 -6.00882 3.63548 -119.787 33.2341 34.8264 2.06576e-006 1.01025e-006 7.15918e-007 -4.68197 66.3515 3.41112 1.15337e-007 3.42484e-006 3.0082 -8.02914 -4.95144 -0.697657 45.069 79.2444 137.418 180 7.0161e-015 179.243 168.957 77.4145 -174.195 -2.99257e-007 -3.05125e-006 1.52593 -21.1138 68.3898 19.8968 8.1365 25.2327 -3.48774 -52.4655 78.1984 -129.593 4.5067e-006 -1.99009e-005 -0.805695 -3.91147 -80.276 -0.30542 3.40533e-006 -6.77322e-007 -1.84371 21.1129 71.3338 -22.7347 -8.13621 25.2327 3.48761 
54.0953 66.2238 23.0903 0.715421 25.2018 -1.35587 1.06169 3.02798 -0.087961 2.14559 10.0645 -0.358223 2.15711 11.7089 -0.395743 -6.90128 6.44355 -4.54684 3.28685 9.72435 -6.07914 44.5852 -9.6789 -5.89834 127.605 32.0008 -41.6061 9.69126e-007 -2.52764e-006 -7.98789e-006 25.4927 75.1259 -23.593 -6.96718e-006 2.77333e-006 -2.99999 8.0294 -4.95146 0.69767 -57.105 -6.02074 3.64167 -119.858 33.2252 34.842 2.06576e-006 1.01025e-006 7.15918e-007 -4.67958 66.4014 3.41994 1.15337e-007 3.42484e-006 3.0082 -8.02914 -4.95144 -0.697657 44.8519 79.1889 137.664 180 7.01609e-015 179.24 168.993 77.5421 -174.216 -2.99257e-007 -3.05125e-006 1.5335 -21.0909 68.3506 19.8609 8.1365 25.2327 -3.48774 -52.2223 78.1516 -129.865 4.5067e-006 -1.99009e-005 -0.809078 -3.74086 -80.4139 -0.157271 3.40533e-006 -6.77322e-007 -1.85078 21.0824 71.3055 -22.7026 -8.13621 25.2327 3.48761 
54.1079 66.119 23.0159 0.719841 25.1016 -1.36907 1.06114 3.02749 -0.0883271 2.14498 10.0639 -0.358997 2.15652 11.7083 -0.396511 -6.88112 6.41995 -4.5457 3.26139 9.7559 -6.07386 44.5945 -9.69081 -5.90816 127.535 31.9727 -41.6783 9.69126e-007 -2.52764e-006 -7.98789e-006 25.5353 75.2575 -23.6814 -6.96718e-006 2.77333e-006 -2.99999 8.0294 -4.95146 0.69767 -57.0775 -6.0329 3.64803 -119.944 33.2253 34.8465 2.06576e-006 1.01025e-006 7.15918e-007 -4.69253 66.4394 3.44086 1.15337e-007 3.42484e-006 3.0082 -8.02914 -4.95144 -0.697657 44.6535 79.1344 137.891 180 7.01609e-015 179.237 169.03 77.667 -174.238 -2.99257e-007 -3.05125e-006 1.54111 -21.0683 68.3099 19.8239 8.1365 25.2327 -3.48774 -51.9921 78.1067 -130.125 4.5067e-006 -1.99009e-005 -0.812462 -3.56566 -80.5487 -0.00418535 3.40533e-006 -6.77322e-007 -1.85763 21.0497 71.2757 -22.6688 -8.13621 25.2327 3.48761 
